<?xml version="1.0" encoding="utf-8"?>
<!-- Generator: Adobe Illustrator 16.0.4, SVG Export Plug-In . SVG Version: 6.00 Build 0)  -->
<!DOCTYPE svg PUBLIC "-//W3C//DTD SVG 1.1//EN" "http://www.w3.org/Graphics/SVG/1.1/DTD/svg11.dtd">
<svg version="1.1" xmlns="http://www.w3.org/2000/svg" xmlns:xlink="http://www.w3.org/1999/xlink" x="0px" y="0px"
	 width="283.123px" height="181.792px" viewBox="0 0 283.123 181.792" enable-background="new 0 0 283.123 181.792"
	 xml:space="preserve">
<g id="Layer_1">
	<g>
		<path d="M81.205,22.814l-0.469-0.203c-5.627-2.391-10.484-4.453-10.484-9.547c0-4.309,4.099-7.684,9.332-7.684
			c3.635,0,6.701,1.397,7.99,2.914c-0.534,0.753-0.816,1.648-0.816,2.604c0,1.036,0.425,1.968,1.199,2.621
			c0.674,0.563,1.543,0.873,2.457,0.873c1.866,0,3.758-1.376,3.758-4.001C94.172,5.475,88.232,0,79.713,0
			c-8.461,0-14.842,5.672-14.842,13.195c0,8.204,6.893,11.85,13.645,14.338c7.153,2.983,10.785,5.35,10.785,9.979
			c0,5.295-3.918,8.584-10.225,8.584c-4.479,0-7.891-1.649-9.409-3.512c0.694-0.783,1.091-1.77,1.091-2.778
			c0-1.874-1.831-3.648-3.772-3.648c-2.185,0-3.897,1.886-3.897,4.284c0,2.806,1.669,5.609,4.576,7.703
			c2.982,2.148,6.99,3.327,11.285,3.327c9.412,0,15.986-5.79,15.986-14.085C94.936,29.237,87.973,25.436,81.205,22.814z"/>
		<polygon points="109.319,40.248 114.949,34.609 114.949,6.525 126.714,6.525 126.714,1.142 97.942,1.142 97.942,6.525 
			109.319,6.525 		"/>
		<path d="M208.419,12.547C200.477,4.98,189.162,1.142,174.8,1.142h-29.595v5.384h12.183l-47.534,48.397l-0.534,0.544v27.805H97.942
			v5.377h28.771v-5.377h-11.765V57.375l13.822-14.043l31.782,44.541l0.56,0.775h14.869h0.006
			c28.246-0.159,44.448-16.197,44.448-44.004C220.437,31.127,216.28,20.027,208.419,12.547z M164.175,83.271l-31.601-43.92
			l32.199-32.826H174.8c12.913,0,22.929,3.301,29.752,9.816c6.797,6.494,10.249,16.018,10.249,28.303
			c0,12.459-3.39,22.112-10.076,28.697c-6.685,6.589-16.493,9.93-29.163,9.93H164.175z"/>
	</g>
	<g>
		<polygon points="169.877,44.662 169.385,44.662 166.788,45.395 166.985,46.266 168.956,45.701 168.956,52.383 166.854,52.383 
			166.854,53.239 171.951,53.239 171.951,52.383 169.877,52.383 		"/>
		<path d="M179.353,39.73c1.615,0,2.734-0.984,2.734-2.4c0-1.424-1.166-2.012-2.37-2.482c-1.134-0.455-1.88-0.816-1.88-1.683
			c0-0.78,0.687-1.348,1.632-1.348c0.528,0,1.104,0.214,1.348,0.476c-0.106,0.141-0.16,0.299-0.16,0.469
			c0,0.352,0.279,0.634,0.639,0.634c0.369,0,0.65-0.309,0.65-0.724c0-0.91-1.147-1.713-2.453-1.713
			c-1.487,0-2.566,0.941-2.566,2.241c0,1.41,1.109,1.96,2.436,2.485c0.996,0.402,1.821,0.805,1.821,1.686
			c0,0.91-0.705,1.499-1.804,1.499c-0.796,0-1.378-0.276-1.65-0.579c0.118-0.139,0.193-0.321,0.193-0.508
			c0-0.344-0.283-0.625-0.625-0.625c-0.383,0-0.663,0.323-0.663,0.777C176.634,38.781,177.748,39.73,179.353,39.73z"/>
		<polygon points="184.471,31.926 186.604,31.926 186.604,38.76 185.4,38.76 185.4,39.606 188.722,39.606 188.722,38.76 
			187.521,38.76 187.521,31.926 189.653,31.926 189.653,33.361 190.558,33.361 190.558,31.084 183.558,31.084 183.558,33.361 
			184.471,33.361 		"/>
		<polygon points="174.384,37.396 173.483,37.396 173.483,38.76 170.308,38.76 170.308,35.692 173.179,35.692 173.179,34.826 
			170.308,34.826 170.308,31.926 173.483,31.926 173.483,33.299 174.384,33.299 174.384,31.084 168.267,31.084 168.267,31.926 
			169.388,31.926 169.388,38.76 168.267,38.76 168.267,39.606 174.384,39.606 		"/>
		<path d="M190.219,38.979c0,0.416,0.312,0.725,0.713,0.725c0.394,0,0.705-0.316,0.705-0.725c0-0.388-0.321-0.712-0.705-0.712
			C190.53,38.268,190.219,38.574,190.219,38.979z"/>
		<path d="M184.996,52.389h-3.542c0.395-1.085,1.312-1.853,2.238-2.525c1.211-0.88,2.065-1.6,2.065-2.953
			c0-1.324-1.108-2.328-2.599-2.328c-1.229,0-2.027,0.657-2.372,1.275c-0.132,0.262-0.208,0.541-0.208,0.788
			c0,0.569,0.353,0.829,0.699,0.829c0.354,0,0.634-0.291,0.634-0.644c0-0.243-0.123-0.458-0.338-0.571
			c0.003-0.024,0.01-0.038,0.021-0.053c0.194-0.354,0.712-0.768,1.553-0.768c0.94,0,1.679,0.643,1.679,1.471
			c0,0.952-0.655,1.515-1.665,2.254c-1.119,0.826-2.352,1.853-2.799,3.604l-0.026,0.085l0.231,0.386h5.339v-2.323h-0.911V52.389z"/>
		<rect x="173.935" y="58.908" width="11.679" height="0.718"/>
		<path d="M178.552,50.873c0-0.94-0.649-1.713-1.394-2.079c0.74-0.391,1.225-1.114,1.225-1.907c0-1.365-1.087-2.319-2.646-2.319
			c-1.557,0-2.651,0.954-2.651,2.319c0,0.793,0.485,1.517,1.228,1.907c-0.743,0.366-1.399,1.139-1.399,2.079
			c0,1.441,1.186,2.49,2.823,2.49C177.368,53.363,178.552,52.314,178.552,50.873z M175.737,45.439c0.982,0,1.725,0.635,1.725,1.471
			c0,0.835-0.742,1.467-1.725,1.467c-0.985,0-1.733-0.632-1.733-1.467C174.004,46.074,174.752,45.439,175.737,45.439z
			 M175.737,52.495c-1.098,0-1.908-0.679-1.908-1.622c0-0.897,0.862-1.629,1.908-1.629c1.049,0,1.896,0.731,1.896,1.629
			C177.634,51.816,176.84,52.495,175.737,52.495z"/>
		<path d="M191.666,48.794c0.748-0.391,1.236-1.114,1.236-1.907c0-1.365-1.093-2.319-2.656-2.319c-1.558,0-2.648,0.954-2.648,2.319
			c0,0.793,0.482,1.517,1.235,1.907c-0.754,0.366-1.402,1.139-1.402,2.079c0,1.441,1.19,2.49,2.815,2.49
			c1.636,0,2.818-1.049,2.818-2.49C193.064,49.933,192.414,49.16,191.666,48.794z M190.246,45.439c0.985,0,1.736,0.635,1.736,1.471
			c0,0.835-0.751,1.467-1.736,1.467c-0.978,0-1.729-0.632-1.729-1.467C188.518,46.074,189.269,45.439,190.246,45.439z
			 M190.246,52.495c-1.098,0-1.895-0.679-1.895-1.622c0-0.897,0.853-1.629,1.895-1.629c1.046,0,1.899,0.731,1.899,1.629
			C192.146,51.816,191.347,52.495,190.246,52.495z"/>
	</g>
</g>
<g id="Layer_2">
	<g>
		<path d="M102.105,172.561h1.755v7.539h3.835v1.561h-5.59V172.561z"/>
		<path d="M117.043,172.43c2.808,0,4.744,2.094,4.744,4.682c0,2.586-1.937,4.68-4.744,4.68c-2.809,0-4.746-2.094-4.746-4.68
			C112.297,174.524,114.234,172.43,117.043,172.43z M117.043,180.231c1.715,0,2.99-1.404,2.99-3.119c0-1.717-1.275-3.121-2.99-3.121
			c-1.717,0-2.99,1.404-2.99,3.121C114.053,178.827,115.326,180.231,117.043,180.231z"/>
		<path d="M127.299,172.561h1.235l5.07,5.928v-5.928h1.755v9.1h-1.234l-5.07-5.928v5.928h-1.756V172.561z"/>
		<path d="M144.381,172.561c1.443,0,2.393,0.312,3.133,0.857c1.119,0.832,1.808,2.184,1.808,3.693c0,1.508-0.688,2.859-1.808,3.691
			c-0.74,0.545-1.689,0.857-3.133,0.857h-2.859v-9.1H144.381z M146.903,175.135c-0.507-0.637-1.248-1.014-2.327-1.014h-1.301v5.979
			h1.301c1.079,0,1.82-0.377,2.327-1.014c0.416-0.52,0.663-1.221,0.663-1.975C147.566,176.356,147.319,175.655,146.903,175.135z"/>
		<path d="M158.928,172.43c2.809,0,4.746,2.094,4.746,4.682c0,2.586-1.938,4.68-4.746,4.68c-2.808,0-4.744-2.094-4.744-4.68
			C154.184,174.524,156.12,172.43,158.928,172.43z M158.928,180.231c1.717,0,2.99-1.404,2.99-3.119c0-1.717-1.273-3.121-2.99-3.121
			c-1.716,0-2.99,1.404-2.99,3.121C155.938,178.827,157.212,180.231,158.928,180.231z"/>
		<path d="M168.859,172.561h1.235l5.07,5.928v-5.928h1.755v9.1h-1.234l-5.07-5.928v5.928h-1.756V172.561z"/>
	</g>
	<g>
		<path d="M1.585,140.446c0.72,0.791,1.818,1.387,2.971,1.387c1.081,0,1.837-0.666,1.837-1.586c0-1.619-2.341-1.818-4.033-2.809
			c-0.99-0.576-1.783-1.439-1.783-2.861c0-2.252,2.07-3.548,4.16-3.548c1.277,0,2.467,0.306,3.654,1.188l-1.26,1.801
			c-0.504-0.469-1.351-0.828-2.18-0.828c-0.918,0-1.943,0.396-1.943,1.367c0,2.035,5.815,1.404,5.815,5.654
			c0,2.232-1.999,3.781-4.268,3.781c-1.692,0-3.259-0.703-4.556-1.891L1.585,140.446z"/>
		<path d="M23.799,131.209v2.16h-3.33v10.443h-2.432V133.37h-3.33v-2.16H23.799z"/>
		<path d="M31.789,140.842c0.883,0,1.584,0.701,1.584,1.584s-0.701,1.566-1.584,1.566c-0.882,0-1.566-0.684-1.566-1.566
			S30.907,140.842,31.789,140.842z"/>
		<path d="M44.119,137.62v6.193h-2.431v-12.604h2.431v5.041l4.771-5.041h3.205l-5.546,5.762l6.212,6.842h-3.115L44.119,137.62z"/>
		<path d="M58.193,143.813l5.402-12.604h1.711l5.4,12.604h-2.538l-1.188-2.791h-5.06l-1.188,2.791H58.193z M62.84,138.862h3.204
			l-1.603-3.729L62.84,138.862z"/>
		<path d="M84.873,131.209v2.16h-3.331v10.443h-2.431V133.37H75.78v-2.16H84.873z"/>
		<path d="M101.019,138.141h-6.302v5.672h-2.431v-12.604h2.431v4.771h6.302v-4.771h2.431v12.604h-2.431V138.141z"/>
		<path d="M109.962,143.813l5.401-12.604h1.711l5.401,12.604h-2.538l-1.189-2.791h-5.059l-1.189,2.791H109.962z M114.607,138.862
			h3.205l-1.603-3.729L114.607,138.862z"/>
		<path d="M131.419,138.231v5.582h-2.431v-12.604h4.592c1.296,0,2.124,0.359,2.754,0.936c0.685,0.648,1.117,1.566,1.117,2.574
			c0,1.01-0.433,1.928-1.117,2.576c-0.342,0.324-0.756,0.576-1.26,0.738l4.717,5.779h-3.006l-4.484-5.582H131.419z M133.436,136.071
			c0.702,0,1.008-0.145,1.225-0.379c0.216-0.234,0.359-0.594,0.359-0.953c0-0.379-0.144-0.738-0.359-0.973
			c-0.217-0.234-0.522-0.396-1.225-0.396h-2.017v2.701H133.436z"/>
		<path d="M146.305,131.209h2.43v12.604h-2.43V131.209z"/>
		<path d="M156.87,131.209h1.71l7.022,8.209v-8.209h2.431v12.604h-1.711l-7.021-8.211v8.211h-2.431V131.209z"/>
		<path d="M178.597,133.37v2.611h3.871v2.16h-3.871v3.512h5.312v2.16h-7.742v-12.604h7.562v2.16H178.597z"/>
		<path d="M205.398,131.209c1.999,0,3.313,0.432,4.34,1.188c1.549,1.152,2.502,3.025,2.502,5.113c0,2.09-0.953,3.961-2.502,5.113
			c-1.026,0.758-2.341,1.189-4.34,1.189h-3.961v-12.604H205.398z M208.892,134.774c-0.702-0.883-1.729-1.404-3.223-1.404h-1.801
			v8.283h1.801c1.494,0,2.521-0.523,3.223-1.406c0.576-0.719,0.919-1.691,0.919-2.736
			C209.811,136.467,209.468,135.495,208.892,134.774z"/>
		<path d="M225.596,131.029c3.889,0,6.571,2.899,6.571,6.481c0,3.584-2.683,6.482-6.571,6.482c-3.89,0-6.572-2.898-6.572-6.482
			C219.023,133.928,221.706,131.029,225.596,131.029z M225.596,141.833c2.376,0,4.141-1.945,4.141-4.322s-1.765-4.32-4.141-4.32
			c-2.377,0-4.143,1.943-4.143,4.32S223.219,141.833,225.596,141.833z"/>
		<path d="M241.02,137.51c0,2.449,1.873,4.322,4.304,4.322c1.638,0,2.827-0.793,3.565-1.748l1.674,1.496
			c-1.116,1.422-2.988,2.412-5.293,2.412c-3.926,0-6.681-2.863-6.681-6.482s2.719-6.481,6.644-6.481c1.873,0,3.476,0.702,4.609,1.8
			l-1.566,1.656c-0.756-0.756-1.818-1.295-3.061-1.295C242.82,133.19,241.02,135.116,241.02,137.51z"/>
		<path d="M260.046,137.62v6.193h-2.431v-12.604h2.431v5.041l4.771-5.041h3.205l-5.546,5.762l6.212,6.842h-3.114L260.046,137.62z"/>
		<path d="M275.885,140.446c0.721,0.791,1.819,1.387,2.972,1.387c1.08,0,1.836-0.666,1.836-1.586c0-1.619-2.341-1.818-4.033-2.809
			c-0.99-0.576-1.782-1.439-1.782-2.861c0-2.252,2.07-3.548,4.159-3.548c1.278,0,2.467,0.306,3.655,1.188l-1.261,1.801
			c-0.504-0.469-1.351-0.828-2.179-0.828c-0.918,0-1.944,0.396-1.944,1.367c0,2.035,5.815,1.404,5.815,5.654
			c0,2.232-1.998,3.781-4.267,3.781c-1.693,0-3.259-0.703-4.556-1.891L275.885,140.446z"/>
	</g>
</g>
</svg>
