<?xml version="1.0" standalone="no"?>
<!DOCTYPE svg PUBLIC "-//W3C//DTD SVG 20010904//EN"
 "http://www.w3.org/TR/2001/REC-SVG-20010904/DTD/svg10.dtd">
<svg version="1.0" xmlns="http://www.w3.org/2000/svg"
 width="200.000000pt" height="200.000000pt" viewBox="0 0 200.000000 200.000000"
 preserveAspectRatio="xMidYMid meet">

<g transform="translate(0.000000,200.000000) scale(0.100000,-0.100000)"
fill="#000000" stroke="none">
<path d="M0 1000 l0 -1000 1000 0 1000 0 0 1000 0 1000 -1000 0 -1000 0 0
-1000z m688 573 c-10 -2 -28 -2 -40 0 -13 2 -5 4 17 4 22 1 32 -1 23 -4z m770
-5 c7 -7 12 -16 12 -22 0 -5 -6 -2 -12 7 -10 13 -33 17 -103 20 l-90 3 91 2
c59 1 94 -2 102 -10z m-855 -5 c-7 -2 -19 -2 -25 0 -7 3 -2 5 12 5 14 0 19 -2
13 -5z m150 0 c-7 -2 -19 -2 -25 0 -7 3 -2 5 12 5 14 0 19 -2 13 -5z m498 -20
c-12 -20 -14 -14 -5 12 4 9 9 14 11 11 3 -2 0 -13 -6 -23z m-731 2 c-46 -18
-64 -17 -25 0 17 8 37 14 45 14 8 0 -1 -7 -20 -14z m277 9 c-3 -3 -12 -4 -19
-1 -8 3 -5 6 6 6 11 1 17 -2 13 -5z m693 -59 c0 -5 -5 -3 -10 5 -5 8 -10 20
-10 25 0 6 5 3 10 -5 5 -8 10 -19 10 -25z m-1050 20 c0 -2 -10 -9 -22 -15 -22
-11 -22 -10 -4 4 21 17 26 19 26 11z m563 -84 l42 -45 -50 44 c-27 25 -61 53
-75 63 -24 17 -24 17 8 0 18 -9 51 -38 75 -62z m-641 30 c-19 -16 -46 -42 -60
-58 -15 -16 -21 -20 -13 -9 16 23 93 96 101 96 3 -1 -10 -14 -28 -29z m859 2
c-12 -20 -14 -14 -5 12 4 9 9 14 11 11 3 -2 0 -13 -6 -23z m-20 -50 c-12 -20
-14 -14 -5 12 4 9 9 14 11 11 3 -2 0 -13 -6 -23z m-508 -10 c-13 -2 -35 -2
-50 0 -16 2 -5 4 22 4 28 0 40 -2 28 -4z m-96 -9 c-3 -3 -12 -4 -19 -1 -8 3
-5 6 6 6 11 1 17 -2 13 -5z m943 -29 c0 -5 -5 -3 -10 5 -5 8 -10 20 -10 25 0
6 5 3 10 -5 5 -8 10 -19 10 -25z m-1026 -5 c-62 -35 -112 -96 -136 -164 -9
-28 -17 -42 -17 -31 -1 29 31 95 65 134 29 35 109 91 128 91 6 0 -12 -13 -40
-30z m406 -87 c0 -8 -9 0 -50 45 l-45 47 48 -45 c26 -24 47 -45 47 -47z m251
60 c-12 -20 -14 -14 -5 12 4 9 9 14 11 11 3 -2 0 -13 -6 -23z m-91 -3 c6 -11
8 -20 6 -20 -3 0 -10 9 -16 20 -6 11 -8 20 -6 20 3 0 10 -9 16 -20z m290 1 c0
-5 3 -18 6 -28 6 -17 6 -17 -8 1 -14 18 -15 18 -22 -9 -4 -15 -9 -25 -12 -23
-7 7 17 68 27 68 5 0 9 -4 9 -9z m-220 -61 c-5 -22 -8 -27 -9 -13 -1 21 9 56
14 51 2 -2 0 -19 -5 -38z m-40 -5 c0 -5 -5 -3 -10 5 -5 8 -10 20 -10 25 0 6 5
3 10 -5 5 -8 10 -19 10 -25z m-889 -2 c-12 -20 -14 -14 -5 12 4 9 9 14 11 11
3 -2 0 -13 -6 -23z m1179 -18 c0 -5 -5 -3 -10 5 -5 8 -10 20 -10 25 0 6 5 3
10 -5 5 -8 10 -19 10 -25z m-81 -24 c-6 -18 -13 -30 -15 -28 -2 2 1 18 7 36 6
18 13 30 15 28 2 -2 -1 -18 -7 -36z m-1112 -3 c-3 -8 -6 -5 -6 6 -1 11 2 17 5
13 3 -3 4 -12 1 -19z m962 -72 c1 -57 -5 -40 -12 29 -3 37 -2 51 3 35 4 -14 8
-43 9 -64z m-30 -23 c1 -50 12 -68 25 -40 3 6 4 -14 1 -45 -11 -124 -85 -254
-191 -338 -35 -29 -64 -56 -64 -61 0 -13 164 -11 177 2 6 6 2 -17 -9 -51 -11
-34 -22 -59 -24 -57 -3 2 0 16 5 31 10 26 10 26 -33 26 -48 0 -161 32 -189 54
-18 14 -16 16 25 36 123 62 211 165 249 292 18 57 21 88 17 162 -3 50 -2 80 3
66 4 -14 7 -49 8 -77z m291 42 c0 -5 -5 -3 -10 5 -5 8 -10 20 -10 25 0 6 5 3
10 -5 5 -8 10 -19 10 -25z m-1233 3 c-3 -8 -6 -5 -6 6 -1 11 2 17 5 13 3 -3 4
-12 1 -19z m1094 -15 c-12 -20 -14 -14 -5 12 4 9 9 14 11 11 3 -2 0 -13 -6
-23z m-324 -40 c-3 -10 -5 -2 -5 17 0 19 2 27 5 18 2 -10 2 -26 0 -35z m-610
-25 c-2 -13 -4 -5 -4 17 -1 22 1 32 4 23 2 -10 2 -28 0 -40z m1103 -3 c0 -5
-5 -3 -10 5 -5 8 -10 20 -10 25 0 6 5 3 10 -5 5 -8 10 -19 10 -25z m190 -10
c0 -5 -5 -3 -10 5 -5 8 -10 20 -10 25 0 6 5 3 10 -5 5 -8 10 -19 10 -25z
m-389 -2 c-12 -20 -14 -14 -5 12 4 9 9 14 11 11 3 -2 0 -13 -6 -23z m-294 -20
c-3 -10 -5 -4 -5 12 0 17 2 24 5 18 2 -7 2 -21 0 -30z m396 -41 c-69 -1 -128
-1 -130 2 -3 2 0 13 7 23 10 16 11 16 6 1 -5 -16 5 -18 110 -18 l116 0 -6 28
c-5 27 -5 27 8 -3 l14 -30 -125 -3z m-1166 6 c-3 -7 -5 -2 -5 12 0 14 2 19 5
13 2 -7 2 -19 0 -25z m760 -10 c-3 -8 -6 -5 -6 6 -1 11 2 17 5 13 3 -3 4 -12
1 -19z m723 -13 c0 -5 -5 -3 -10 5 -5 8 -10 20 -10 25 0 6 5 3 10 -5 5 -8 10
-19 10 -25z m-1259 -72 c13 -16 12 -17 -3 -4 -10 7 -18 15 -18 17 0 8 8 3 21
-13z m-177 -30 c9 -18 14 -33 12 -33 -6 0 -36 55 -36 66 0 11 5 3 24 -33z
m666 24 c0 -2 -15 -16 -32 -33 l-33 -29 29 33 c28 30 36 37 36 29z m-459 -34
c13 -16 12 -17 -3 -4 -10 7 -18 15 -18 17 0 8 8 3 21 -13z m69 -50 c0 -7 -39
17 -46 28 -3 6 5 3 20 -6 14 -10 26 -19 26 -22z m843 10 c-144 -3 -193 -7
-194 -16 0 -6 -9 -30 -20 -52 -21 -43 -15 -13 7 42 l14 33 193 -2 192 -3 -192
-2z m-798 -23 c13 -6 15 -9 5 -9 -8 0 -22 4 -30 9 -18 12 -2 12 25 0z m1005
-25 c0 -5 -5 -3 -10 5 -5 8 -10 20 -10 25 0 6 5 3 10 -5 5 -8 10 -19 10 -25z
m-1200 -62 c0 -8 -9 0 -50 45 l-45 47 48 -45 c26 -24 47 -45 47 -47z m247 71
c-3 -3 -12 -4 -19 -1 -8 3 -5 6 6 6 11 1 17 -2 13 -5z m116 -1 c-7 -2 -19 -2
-25 0 -7 3 -2 5 12 5 14 0 19 -2 13 -5z m-303 -110 c0 -7 -39 17 -46 28 -3 6
5 3 20 -6 14 -10 26 -19 26 -22z m689 -2 c-6 -18 -13 -30 -15 -28 -2 2 1 18 7
36 6 18 13 30 15 28 2 -2 -1 -18 -7 -36z m501 -26 c0 -5 -5 -3 -10 5 -5 8 -10
20 -10 25 0 6 5 3 10 -5 5 -8 10 -19 10 -25z m-1053 -21 c-3 -3 -12 -4 -19 -1
-8 3 -5 6 6 6 11 1 17 -2 13 -5z m69 -56 l29 -33 -32 29 c-31 28 -38 36 -30
36 2 0 16 -15 33 -32z m55 -45 c13 -16 12 -17 -3 -4 -10 7 -18 15 -18 17 0 8
8 3 21 -13z m59 -39 c0 -2 -9 0 -20 6 -11 6 -20 13 -20 16 0 2 9 0 20 -6 11
-6 20 -13 20 -16z m291 -11 c-12 -20 -14 -14 -5 12 4 9 9 14 11 11 3 -2 0 -13
-6 -23z m-20 -50 c-12 -20 -14 -14 -5 12 4 9 9 14 11 11 3 -2 0 -13 -6 -23z
m-54 -9 c-3 -3 -12 -4 -19 -1 -8 3 -5 6 6 6 11 1 17 -2 13 -5z"/>
<path d="M856 667 c-19 -14 -19 -15 2 -26 30 -16 39 -14 45 10 4 16 3 18 -8 9
-10 -8 -14 -7 -17 5 -3 14 -5 14 -22 2z"/>
</g>
</svg>
